<?xml version="1.0" encoding="UTF-8"?> <svg xmlns="http://www.w3.org/2000/svg" id="Layer_1" data-name="Layer 1" viewBox="0 0 300.85 94.02"><path d="M299.15,71.17a9.5,9.5,0,0,1-2.94.76c-1.32,0-2.17-.8-2.17-2.46v-8.8h6.34v-6.1H294V47.43h-9.51v7.14H281v6.1h3.55V70.94c0,5.34,3.69,8.51,9.18,8.47a15.18,15.18,0,0,0,7.14-1.66ZM269,52.87a9.18,9.18,0,0,0-8.19,4.35V43.88h-9.55V79h9.55V66.26c0-2.94,1.61-5,4.21-5,2.27,0,3.69,1.61,3.69,4.16V79h9.56V62.66c0-6-3.74-9.79-9.27-9.79M231.78,70.65c-2.6,0-4.35-2.12-4.35-5.29s1.75-5.4,4.35-5.4,4.4,2.13,4.4,5.4-1.75,5.29-4.4,5.29m13.86-17.4h-9.46V56a8.84,8.84,0,0,0-7.09-3.12c-6.2,0-10.6,4.82-10.6,12.15,0,7.52,4.54,12.44,10.79,12.44a8.56,8.56,0,0,0,6.9-3.07V77c0,2.51-2,4.12-5.48,4.12a14.87,14.87,0,0,1-7.9-2.37l-3.17,6.43a22.13,22.13,0,0,0,11.87,3.36c8.42,0,14.14-4.59,14.14-11.82Zm-30.9,0h-9.55V79h9.55ZM210,41a4.92,4.92,0,1,0,4.92,4.92A4.72,4.72,0,0,0,210,41M189.83,52.82c-6.48,0-11,3.22-11,8.61,0,8.8,13.15,7.38,13.15,10.31,0,.81-.85,1.18-2.13,1.18a17.71,17.71,0,0,1-9.32-3.16l-2.93,6a20.55,20.55,0,0,0,12.11,3.65c6.72,0,11.3-3.22,11.3-8.52,0-8.8-13.43-7.52-13.43-10.41,0-.8.76-1.23,1.94-1.23,2,0,4.92.9,8.42,2.7l3.17-6a22.68,22.68,0,0,0-11.31-3.12m-24.57,0a9.17,9.17,0,0,0-8.18,4.35v-4h-9.55V79h9.55V66.26c0-2.94,1.61-5,4.21-5,2.22,0,3.69,1.61,3.69,4.16V79h9.56V62.66c0-6-3.79-9.79-9.28-9.79m-23.5-7h-9.84V79h9.84Z" style="fill:#1b8e45"></path><path d="M235.09,28.1c-2.84,0-4.68-2.32-4.68-5.77s1.84-5.73,4.68-5.73,4.64,2.32,4.64,5.73-1.85,5.77-4.64,5.77M249.28,0h-9.55V12.35A9.12,9.12,0,0,0,232.44,9c-7.05,0-11.68,5.16-11.68,13.06,0,8.09,4.73,13.34,11.92,13.34a8.83,8.83,0,0,0,7-3.26V35.1h9.55ZM204.2,16.6c2.79,0,4.63,2.32,4.63,5.73s-1.84,5.72-4.63,5.72-4.68-2.27-4.68-5.72,1.84-5.73,4.68-5.73m0-7.57c-8.66,0-14.33,5.21-14.33,13.2s5.67,13.2,14.33,13.2,14.28-5.25,14.28-13.2S212.86,9,204.2,9M173.43,16.6c2.79,0,4.64,2.32,4.64,5.73s-1.85,5.72-4.64,5.72-4.68-2.27-4.68-5.72,1.85-5.73,4.68-5.73m0-7.57c-8.65,0-14.33,5.21-14.33,13.2s5.68,13.2,14.33,13.2,14.29-5.25,14.29-13.2S182.09,9,173.43,9m-15.78.48V1.94H131.92V35.1h9.84V23.7h14.75V16.13H141.76V9.51Z" style="fill:#1b8e45"></path><path d="M57.18,73.8A31.47,31.47,0,1,1,88.64,42.34,31.47,31.47,0,0,1,57.18,73.8M57.29.08A42.22,42.22,0,0,0,15.07,42.3v.37A42.19,42.19,0,0,0,34.48,77.83c-.06.17-.13.33-.19.49a23.93,23.93,0,0,1-2.76,5.31,28,28,0,0,1-8.94,8.16,1.17,1.17,0,0,0-.68,1.37s0,0,0,.08a1.19,1.19,0,0,0,1.35.77c1.32-.1,2.64-.15,3.95-.32,8-1,15.08-4,20.76-9.94a.69.69,0,0,1,.52-.15l.54.11.41.09h0A42.23,42.23,0,0,0,99.5,42.61V42.3A42.21,42.21,0,0,0,57.29.08" style="fill:#316cb5"></path><path d="M9,74.09,8.85,69.6q-.19-7.42-.38-14.84c0-1.85-.09-3.69-.13-5.54,0-.74-.27-10.23-.27-10.25-.06-2.59-.14-5.17-.19-7.76A4.55,4.55,0,0,1,8,30.05a8.71,8.71,0,0,1,1.83-3.21A5.84,5.84,0,0,0,11.31,23q-.08-4.48-.2-9C11,10.88,11,7.78,10.88,4.67a2.34,2.34,0,0,0-.33-1.27c-.26-.42-.7-.52-1,0a2.21,2.21,0,0,0-.31,1.15c0,.65,0,1.3-.05,2-.12,4.72-.23,9.45-.37,14.17a2.34,2.34,0,0,1-.26,1,.71.71,0,0,1-1.32.05,2,2,0,0,1-.32-1.12c-.14-5.33-.27-10.66-.42-16a3.58,3.58,0,0,0-.21-1A.71.71,0,0,0,5.64,3a.66.66,0,0,0-.59.53,5.44,5.44,0,0,0-.21,1.26q-.22,7.9-.41,15.83a1.94,1.94,0,0,1-.35,1.09.65.65,0,0,1-1,.13,1.61,1.61,0,0,1-.53-1.24c0-.61,0-1.23,0-1.84Q2.29,11.72,2.1,4.65a4.72,4.72,0,0,0-.25-1.16A.62.62,0,0,0,1.28,3C1,3,.84,3.25.71,3.47A2.54,2.54,0,0,0,.45,4.68c0,2.33-.12,4.66-.17,7C.18,15.35.1,19,0,22.71a5.92,5.92,0,0,0,1.09,3.64c.47.67,1,1.31,1.44,2a5,5,0,0,1,.92,3c-.05,1.13-.06,2.26-.09,3.39C3.32,36.17,3,47.13,3,48.57a1.37,1.37,0,0,0,0,.19c-.05,2.12-.11,4.24-.16,6.36l-.36,14c-.05,1.67-.1,3.34-.13,5A2.74,2.74,0,0,0,5,77c.41,0,.83,0,1.24,0A2.75,2.75,0,0,0,9,74.09" style="fill:#316cb5"></path><path d="M113.05,3.21a1.5,1.5,0,0,0-2.21-1,5.73,5.73,0,0,0-1.56,1.12,9.68,9.68,0,0,0-1.94,2.88,22.22,22.22,0,0,0-1.56,5,55.74,55.74,0,0,0-1,7.93c-.19,3.31-.23,6.63-.18,9.94,0,2.49.13,5,.19,7.46a1.87,1.87,0,0,0,1,1.72l.45.25A3.76,3.76,0,0,1,108.4,42c0,1-1.14,18.83-1.43,25.21q-.16,3.43-.32,6.85a2.73,2.73,0,0,0,2.88,3c.48,0,1,0,1.44,0a2.81,2.81,0,0,0,1.83-.9,3,3,0,0,0,.82-2.22q-.08-3.6-.13-7.2c-.11-6.11-.61-29.25-.68-34-.08-6.3-.1-12.6,0-18.9.07-2.87.21-5.74.33-8.61a6.79,6.79,0,0,0-.14-1.91" style="fill:#316cb5"></path></svg> 